<svg width="294" height="185" viewBox="0 0 294 185" fill="none" xmlns="http://www.w3.org/2000/svg">
<g clip-path="url(#clip0_18_3865)">
<path d="M1.12402 8.9541L1.80459 7.03767" stroke="#03FDCB" stroke-opacity="0.5"/>
<path d="M20.5586 8.9541L21.8496 6.70143" stroke="#03FDCB" stroke-opacity="0.5"/>
<path d="M39.9912 8.9541L42.098 6.4805" stroke="#03FDCB" stroke-opacity="0.5"/>
<path d="M59.4258 8.9541L62.5768 6.44868" stroke="#03FDCB" stroke-opacity="0.5"/>
<path d="M78.8594 8.9541L83.3069 6.72038" stroke="#03FDCB" stroke-opacity="0.5"/>
<path d="M98.293 8.9541L104.316 7.4875" stroke="#03FDCB" stroke-opacity="0.5"/>
<path d="M117.727 8.9541L125.601 9.12458" stroke="#03FDCB" stroke-opacity="0.5"/>
<path d="M137.16 8.9541L145.299 11.8437" stroke="#03FDCB" stroke-opacity="0.5"/>
<path d="M156.594 8.9541L160.522 12.6574" stroke="#03FDCB" stroke-opacity="0.5"/>
<path d="M176.027 8.9541L177.362 13.0616" stroke="#03FDCB" stroke-opacity="0.5"/>
<path d="M195.462 8.9541L194.856 14.3188" stroke="#03FDCB" stroke-opacity="0.5"/>
<path d="M214.896 8.9541L212.006 17.0942" stroke="#03FDCB" stroke-opacity="0.5"/>
<path d="M234.329 8.9541L231.143 16.1579" stroke="#03FDCB" stroke-opacity="0.5"/>
<path d="M253.763 8.9541L251.322 14.6527" stroke="#03FDCB" stroke-opacity="0.5"/>
<path d="M273.196 8.9541L271.516 13.6395" stroke="#03FDCB" stroke-opacity="0.5"/>
<path d="M292.63 8.9541L291.612 12.8491" stroke="#03FDCB" stroke-opacity="0.5"/>
<path d="M1.12402 28.3896L1.66781 26.3373" stroke="#03FDCB" stroke-opacity="0.5"/>
<path d="M20.5586 28.3896L21.6862 25.9224" stroke="#03FDCB" stroke-opacity="0.5"/>
<path d="M39.9912 28.3896L41.92 25.582" stroke="#03FDCB" stroke-opacity="0.5"/>
<path d="M59.4258 28.3896L62.4155 25.37" stroke="#03FDCB" stroke-opacity="0.5"/>
<path d="M78.8594 28.3896L83.24 25.3695" stroke="#03FDCB" stroke-opacity="0.5"/>
<path d="M98.293 28.3896L104.54 25.7284" stroke="#03FDCB" stroke-opacity="0.5"/>
<path d="M117.727 28.3896L126.719 26.7997" stroke="#03FDCB" stroke-opacity="0.5"/>
<path d="M137.16 28.3896L142.524 28.9952" stroke="#03FDCB" stroke-opacity="0.5"/>
<path d="M156.594 28.3896L158.419 29.5422" stroke="#03FDCB" stroke-opacity="0.5"/>
<path d="M176.027 28.3896L176.255 29.8294" stroke="#03FDCB" stroke-opacity="0.5"/>
<path d="M195.462 28.3896L194.309 30.2154" stroke="#03FDCB" stroke-opacity="0.5"/>
<path d="M214.896 28.3896L211.193 32.3181" stroke="#03FDCB" stroke-opacity="0.5"/>
<path d="M234.329 28.3896L228.089 35.058" stroke="#03FDCB" stroke-opacity="0.5"/>
<path d="M253.763 28.3896L249.503 33.6783" stroke="#03FDCB" stroke-opacity="0.5"/>
<path d="M273.196 28.3896L270.314 32.862" stroke="#03FDCB" stroke-opacity="0.5"/>
<path d="M292.63 28.3896L290.781 32.2155" stroke="#03FDCB" stroke-opacity="0.5"/>
<path d="M1.12402 47.8252L1.46092 45.6979" stroke="#03FDCB" stroke-opacity="0.5"/>
<path d="M20.5586 47.8252L21.4092 45.207" stroke="#03FDCB" stroke-opacity="0.5"/>
<path d="M39.9912 47.8252L41.5625 44.741" stroke="#03FDCB" stroke-opacity="0.5"/>
<path d="M59.4258 47.8252L61.9698 44.3233" stroke="#03FDCB" stroke-opacity="0.5"/>
<path d="M78.8594 47.8252L82.7109 43.9733" stroke="#03FDCB" stroke-opacity="0.5"/>
<path d="M98.293 47.8252L103.975 43.6969" stroke="#03FDCB" stroke-opacity="0.5"/>
<path d="M117.727 47.8252L126.384 43.4134" stroke="#03FDCB" stroke-opacity="0.5"/>
<path d="M137.16 47.8252L141.267 46.4906" stroke="#03FDCB" stroke-opacity="0.5"/>
<path d="M156.594 47.8252L158.033 47.5973" stroke="#03FDCB" stroke-opacity="0.5"/>
<path d="M176.027 47.8252H176.093" stroke="#03FDCB" stroke-opacity="0.5"/>
<path d="M195.462 47.8252L194.023 48.0531" stroke="#03FDCB" stroke-opacity="0.5"/>
<path d="M214.896 47.8252L210.788 49.1598" stroke="#03FDCB" stroke-opacity="0.5"/>
<path d="M234.329 47.8252L225.671 52.237" stroke="#03FDCB" stroke-opacity="0.5"/>
<path d="M253.763 47.8252L248.081 51.9535" stroke="#03FDCB" stroke-opacity="0.5"/>
<path d="M273.196 47.8252L269.345 51.6771" stroke="#03FDCB" stroke-opacity="0.5"/>
<path d="M292.63 47.8252L290.086 51.3271" stroke="#03FDCB" stroke-opacity="0.5"/>
<path d="M1.12402 67.2617L1.20409 65.14" stroke="#03FDCB" stroke-opacity="0.5"/>
<path d="M20.5586 67.2617L21.0443 64.5927" stroke="#03FDCB" stroke-opacity="0.5"/>
<path d="M39.9912 67.2617L41.0569 64.026" stroke="#03FDCB" stroke-opacity="0.5"/>
<path d="M59.4258 67.2617L61.2745 63.4358" stroke="#03FDCB" stroke-opacity="0.5"/>
<path d="M78.8594 67.2617L81.7412 62.7894" stroke="#03FDCB" stroke-opacity="0.5"/>
<path d="M98.293 67.2617L102.553 61.9731" stroke="#03FDCB" stroke-opacity="0.5"/>
<path d="M117.727 67.2617L123.967 60.5934" stroke="#03FDCB" stroke-opacity="0.5"/>
<path d="M137.16 67.2617L140.863 63.3333" stroke="#03FDCB" stroke-opacity="0.5"/>
<path d="M156.594 67.2617L157.747 65.436" stroke="#03FDCB" stroke-opacity="0.5"/>
<path d="M176.027 67.2617L175.799 65.822" stroke="#03FDCB" stroke-opacity="0.5"/>
<path d="M195.462 67.2617L193.637 66.1091" stroke="#03FDCB" stroke-opacity="0.5"/>
<path d="M214.896 67.2617L209.531 66.6561" stroke="#03FDCB" stroke-opacity="0.5"/>
<path d="M234.329 67.2617L225.336 68.8517" stroke="#03FDCB" stroke-opacity="0.5"/>
<path d="M253.763 67.2617L247.516 69.9229" stroke="#03FDCB" stroke-opacity="0.5"/>
<path d="M273.196 67.2617L268.816 70.2819" stroke="#03FDCB" stroke-opacity="0.5"/>
<path d="M292.63 67.2617L289.64 70.2814" stroke="#03FDCB" stroke-opacity="0.5"/>
<path d="M1.12402 86.6973L0.928948 84.6729" stroke="#03FDCB" stroke-opacity="0.5"/>
<path d="M20.5586 86.6973L20.6378 84.1018" stroke="#03FDCB" stroke-opacity="0.5"/>
<path d="M39.9912 86.6973L40.4734 83.4834" stroke="#03FDCB" stroke-opacity="0.5"/>
<path d="M59.4258 86.6973L60.4434 82.8023" stroke="#03FDCB" stroke-opacity="0.5"/>
<path d="M78.8594 86.6973L80.5398 82.0119" stroke="#03FDCB" stroke-opacity="0.5"/>
<path d="M98.293 86.6973L100.733 80.9986" stroke="#03FDCB" stroke-opacity="0.5"/>
<path d="M117.727 86.6973L120.912 79.4935" stroke="#03FDCB" stroke-opacity="0.5"/>
<path d="M137.16 86.6973L140.049 78.5572" stroke="#03FDCB" stroke-opacity="0.5"/>
<path d="M156.594 86.6973L157.199 81.3326" stroke="#03FDCB" stroke-opacity="0.5"/>
<path d="M176.027 86.6973L174.693 82.5898" stroke="#03FDCB" stroke-opacity="0.5"/>
<path d="M195.462 86.6973L191.534 82.994" stroke="#03FDCB" stroke-opacity="0.5"/>
<path d="M214.896 86.6973L206.756 83.8077" stroke="#03FDCB" stroke-opacity="0.5"/>
<path d="M234.329 86.6973L226.454 86.5268" stroke="#03FDCB" stroke-opacity="0.5"/>
<path d="M253.763 86.6973L247.74 88.1639" stroke="#03FDCB" stroke-opacity="0.5"/>
<path d="M273.196 86.6973L268.749 88.931" stroke="#03FDCB" stroke-opacity="0.5"/>
<path d="M292.63 86.6973L289.479 89.2027" stroke="#03FDCB" stroke-opacity="0.5"/>
<path d="M1.12402 106.133L0.672134 104.295" stroke="#03FDCB" stroke-opacity="0.5"/>
<path d="M20.5586 106.133L20.2453 103.738" stroke="#03FDCB" stroke-opacity="0.5"/>
<path d="M39.9912 106.132L39.8998 103.123" stroke="#03FDCB" stroke-opacity="0.5"/>
<path d="M59.4258 106.133L59.6231 102.443" stroke="#03FDCB" stroke-opacity="0.5"/>
<path d="M78.8594 106.133L79.3729 101.665" stroke="#03FDCB" stroke-opacity="0.5"/>
<path d="M98.293 106.132L99.0633 100.739" stroke="#03FDCB" stroke-opacity="0.5"/>
<path d="M117.727 106.133L118.507 99.6009" stroke="#03FDCB" stroke-opacity="0.5"/>
<path d="M137.16 106.132L137.331 98.2562" stroke="#03FDCB" stroke-opacity="0.5"/>
<path d="M156.594 106.133L155.004 97.1391" stroke="#03FDCB" stroke-opacity="0.5"/>
<path d="M176.027 106.132L171.616 97.4731" stroke="#03FDCB" stroke-opacity="0.5"/>
<path d="M195.462 106.132L188.794 99.8907" stroke="#03FDCB" stroke-opacity="0.5"/>
<path d="M214.896 106.133L207.693 102.947" stroke="#03FDCB" stroke-opacity="0.5"/>
<path d="M234.329 106.133L227.798 105.352" stroke="#03FDCB" stroke-opacity="0.5"/>
<path d="M253.763 106.132L248.371 106.902" stroke="#03FDCB" stroke-opacity="0.5"/>
<path d="M273.196 106.133L269.013 107.782" stroke="#03FDCB" stroke-opacity="0.5"/>
<path d="M292.63 106.132L289.56 108.188" stroke="#03FDCB" stroke-opacity="0.5"/>
<path d="M1.12402 125.568L0.46734 123.991" stroke="#03FDCB" stroke-opacity="0.5"/>
<path d="M20.5586 125.568L19.9176 123.48" stroke="#03FDCB" stroke-opacity="0.5"/>
<path d="M39.9912 125.568L39.4131 122.918" stroke="#03FDCB" stroke-opacity="0.5"/>
<path d="M59.4258 125.568L58.9328 122.304" stroke="#03FDCB" stroke-opacity="0.5"/>
<path d="M78.8594 125.568L78.4262 121.636" stroke="#03FDCB" stroke-opacity="0.5"/>
<path d="M98.293 125.568L97.8112 120.915" stroke="#03FDCB" stroke-opacity="0.5"/>
<path d="M117.727 125.568L116.956 120.176" stroke="#03FDCB" stroke-opacity="0.5"/>
<path d="M137.16 125.568L135.694 119.545" stroke="#03FDCB" stroke-opacity="0.5"/>
<path d="M156.594 125.568L153.933 119.321" stroke="#03FDCB" stroke-opacity="0.5"/>
<path d="M176.027 125.568L171.899 119.886" stroke="#03FDCB" stroke-opacity="0.5"/>
<path d="M195.462 125.568L190.174 121.308" stroke="#03FDCB" stroke-opacity="0.5"/>
<path d="M214.896 125.568L209.198 123.128" stroke="#03FDCB" stroke-opacity="0.5"/>
<path d="M234.329 125.568L228.937 124.798" stroke="#03FDCB" stroke-opacity="0.5"/>
<path d="M253.763 125.568L249.11 126.05" stroke="#03FDCB" stroke-opacity="0.5"/>
<path d="M273.196 125.568L269.456 126.854" stroke="#03FDCB" stroke-opacity="0.5"/>
<path d="M292.63 125.568L289.807 127.279" stroke="#03FDCB" stroke-opacity="0.5"/>
<path d="M1.12402 145.004L0.339216 143.734" stroke="#03FDCB" stroke-opacity="0.5"/>
<path d="M20.5586 145.004L19.6897 143.292" stroke="#03FDCB" stroke-opacity="0.5"/>
<path d="M39.9912 145.004L39.0625 142.811" stroke="#03FDCB" stroke-opacity="0.5"/>
<path d="M59.4258 145.004L58.437 142.301" stroke="#03FDCB" stroke-opacity="0.5"/>
<path d="M78.8594 145.004L77.7706 141.776" stroke="#03FDCB" stroke-opacity="0.5"/>
<path d="M98.293 145.004L97.0073 141.263" stroke="#03FDCB" stroke-opacity="0.5"/>
<path d="M117.727 145.004L116.078 140.82" stroke="#03FDCB" stroke-opacity="0.5"/>
<path d="M137.16 145.004L134.927 140.556" stroke="#03FDCB" stroke-opacity="0.5"/>
<path d="M156.594 145.004L153.574 140.623" stroke="#03FDCB" stroke-opacity="0.5"/>
<path d="M176.027 145.004L172.176 141.152" stroke="#03FDCB" stroke-opacity="0.5"/>
<path d="M195.462 145.004L190.99 142.121" stroke="#03FDCB" stroke-opacity="0.5"/>
<path d="M214.896 145.004L210.211 143.323" stroke="#03FDCB" stroke-opacity="0.5"/>
<path d="M234.329 145.004L229.862 144.49" stroke="#03FDCB" stroke-opacity="0.5"/>
<path d="M253.763 145.004L249.831 145.437" stroke="#03FDCB" stroke-opacity="0.5"/>
<path d="M273.196 145.004L269.969 146.093" stroke="#03FDCB" stroke-opacity="0.5"/>
<path d="M292.63 145.004L290.15 146.464" stroke="#03FDCB" stroke-opacity="0.5"/>
<path d="M1.12402 164.44L0.167451 163.341" stroke="#03FDCB" stroke-opacity="0.5"/>
<path d="M20.5586 164.44L19.5783 163.133" stroke="#03FDCB" stroke-opacity="0.5"/>
<path d="M39.9912 164.44L38.8667 162.746" stroke="#03FDCB" stroke-opacity="0.5"/>
<path d="M59.4258 164.44L58.1504 162.348" stroke="#03FDCB" stroke-opacity="0.5"/>
<path d="M78.8594 164.44L77.3996 161.961" stroke="#03FDCB" stroke-opacity="0.5"/>
<path d="M98.293 164.44L96.5828 161.617" stroke="#03FDCB" stroke-opacity="0.5"/>
<path d="M117.727 164.44L115.671 161.37" stroke="#03FDCB" stroke-opacity="0.5"/>
<path d="M137.16 164.44L134.655 161.29" stroke="#03FDCB" stroke-opacity="0.5"/>
<path d="M156.594 164.44L153.574 161.45" stroke="#03FDCB" stroke-opacity="0.5"/>
<path d="M176.027 164.44L172.525 161.896" stroke="#03FDCB" stroke-opacity="0.5"/>
<path d="M195.462 164.44L191.636 162.592" stroke="#03FDCB" stroke-opacity="0.5"/>
<path d="M214.896 164.44L211.001 163.423" stroke="#03FDCB" stroke-opacity="0.5"/>
<path d="M234.329 164.44L230.639 164.243" stroke="#03FDCB" stroke-opacity="0.5"/>
<path d="M253.763 164.44L250.499 164.933" stroke="#03FDCB" stroke-opacity="0.5"/>
<path d="M273.196 164.44L270.494 165.429" stroke="#03FDCB" stroke-opacity="0.5"/>
<path d="M292.63 164.44L290.538 165.716" stroke="#03FDCB" stroke-opacity="0.5"/>
<path d="M1.12402 183.876L-1.89345e-05 182.949" stroke="#03FDCB" stroke-opacity="0.5"/>
<path d="M20.5586 183.876L19.4956 182.88" stroke="#03FDCB" stroke-opacity="0.5"/>
<path d="M39.9912 183.876L38.8201 182.667" stroke="#03FDCB" stroke-opacity="0.5"/>
<path d="M59.4258 183.876L58.0558 182.374" stroke="#03FDCB" stroke-opacity="0.5"/>
<path d="M78.8594 183.876L77.2701 182.103" stroke="#03FDCB" stroke-opacity="0.5"/>
<path d="M98.293 183.876L96.4497 181.886" stroke="#03FDCB" stroke-opacity="0.5"/>
<path d="M117.727 183.876L115.586 181.761" stroke="#03FDCB" stroke-opacity="0.5"/>
<path d="M137.16 183.876L134.686 181.769" stroke="#03FDCB" stroke-opacity="0.5"/>
<path d="M156.594 183.876L153.786 181.947" stroke="#03FDCB" stroke-opacity="0.5"/>
<path d="M176.027 183.876L172.944 182.305" stroke="#03FDCB" stroke-opacity="0.5"/>
<path d="M195.462 183.876L192.227 182.81" stroke="#03FDCB" stroke-opacity="0.5"/>
<path d="M214.896 183.876L211.682 183.394" stroke="#03FDCB" stroke-opacity="0.5"/>
<path d="M234.329 183.876L231.321 183.967" stroke="#03FDCB" stroke-opacity="0.5"/>
<path d="M253.763 183.876L251.112 184.454" stroke="#03FDCB" stroke-opacity="0.5"/>
<path d="M273.196 183.876L271.004 184.805" stroke="#03FDCB" stroke-opacity="0.5"/>
<path d="M292.63 183.876L290.936 185" stroke="#03FDCB" stroke-opacity="0.5"/>
</g>
<defs>
<clipPath id="clip0_18_3865">
<rect y="-109" width="294" height="294" rx="147" fill="white"/>
</clipPath>
</defs>
</svg>
