<svg width="294" height="206" viewBox="0 0 294 206" fill="none" xmlns="http://www.w3.org/2000/svg">
<g clip-path="url(#clip0_18_4123)">
<path d="M1.12402 1.33887L1.69932 0.000277941" stroke="#03FDCB" stroke-opacity="0.5"/>
<path d="M20.5586 1.33887L21.3558 0.119355" stroke="#03FDCB" stroke-opacity="0.5"/>
<path d="M39.9912 1.33887L40.9875 0.275727" stroke="#03FDCB" stroke-opacity="0.5"/>
<path d="M59.4258 1.33887L60.7329 0.358409" stroke="#03FDCB" stroke-opacity="0.5"/>
<path d="M78.8594 1.33887L80.5706 0.470197" stroke="#03FDCB" stroke-opacity="0.5"/>
<path d="M98.293 1.33887L100.381 0.697774" stroke="#03FDCB" stroke-opacity="0.5"/>
<path d="M117.727 1.33887L120.122 1.02556" stroke="#03FDCB" stroke-opacity="0.5"/>
<path d="M137.16 1.33887L139.755 1.41807" stroke="#03FDCB" stroke-opacity="0.5"/>
<path d="M156.594 1.33887L159.262 1.82462" stroke="#03FDCB" stroke-opacity="0.5"/>
<path d="M176.027 1.33887L178.645 2.18956" stroke="#03FDCB" stroke-opacity="0.5"/>
<path d="M195.462 1.33887L197.929 2.46659" stroke="#03FDCB" stroke-opacity="0.5"/>
<path d="M214.896 1.33887L217.148 2.63001" stroke="#03FDCB" stroke-opacity="0.5"/>
<path d="M234.329 1.33887L236.339 2.67759" stroke="#03FDCB" stroke-opacity="0.5"/>
<path d="M253.763 1.33887L255.528 2.62464" stroke="#03FDCB" stroke-opacity="0.5"/>
<path d="M273.196 1.33887L274.727 2.49654" stroke="#03FDCB" stroke-opacity="0.5"/>
<path d="M292.63 1.33887L293.937 2.31933" stroke="#03FDCB" stroke-opacity="0.5"/>
<path d="M1.12402 20.7744L1.74568 19.4567" stroke="#03FDCB" stroke-opacity="0.5"/>
<path d="M20.5586 20.7744L21.4049 19.5884" stroke="#03FDCB" stroke-opacity="0.5"/>
<path d="M39.9912 20.7754L41.1999 19.6041" stroke="#03FDCB" stroke-opacity="0.5"/>
<path d="M59.4258 20.7744L61.1193 19.6501" stroke="#03FDCB" stroke-opacity="0.5"/>
<path d="M78.8594 20.7744L81.0516 19.8457" stroke="#03FDCB" stroke-opacity="0.5"/>
<path d="M98.293 20.7754L100.943 20.1972" stroke="#03FDCB" stroke-opacity="0.5"/>
<path d="M117.727 20.7744L120.735 20.683" stroke="#03FDCB" stroke-opacity="0.5"/>
<path d="M137.16 20.7754L140.374 21.2576" stroke="#03FDCB" stroke-opacity="0.5"/>
<path d="M156.594 20.7744L159.829 21.8402" stroke="#03FDCB" stroke-opacity="0.5"/>
<path d="M176.027 20.7754L179.111 22.3468" stroke="#03FDCB" stroke-opacity="0.5"/>
<path d="M195.462 20.7754L198.269 22.7043" stroke="#03FDCB" stroke-opacity="0.5"/>
<path d="M214.896 20.7744L217.369 22.8818" stroke="#03FDCB" stroke-opacity="0.5"/>
<path d="M234.329 20.7744L236.47 22.8898" stroke="#03FDCB" stroke-opacity="0.5"/>
<path d="M253.763 20.7754L255.606 22.7651" stroke="#03FDCB" stroke-opacity="0.5"/>
<path d="M273.196 20.7744L274.786 22.5469" stroke="#03FDCB" stroke-opacity="0.5"/>
<path d="M292.63 20.7754L294 22.2772" stroke="#03FDCB" stroke-opacity="0.5"/>
<path d="M1.12402 40.209L1.77043 38.9033" stroke="#03FDCB" stroke-opacity="0.5"/>
<path d="M20.5586 40.209L21.5389 38.9017" stroke="#03FDCB" stroke-opacity="0.5"/>
<path d="M39.9912 40.209L41.4929 38.8388" stroke="#03FDCB" stroke-opacity="0.5"/>
<path d="M59.4258 40.209L61.5178 38.9335" stroke="#03FDCB" stroke-opacity="0.5"/>
<path d="M78.8594 40.209L81.5617 39.2201" stroke="#03FDCB" stroke-opacity="0.5"/>
<path d="M98.293 40.209L101.557 39.7159" stroke="#03FDCB" stroke-opacity="0.5"/>
<path d="M117.727 40.209L121.416 40.4063" stroke="#03FDCB" stroke-opacity="0.5"/>
<path d="M137.16 40.209L141.055 41.2268" stroke="#03FDCB" stroke-opacity="0.5"/>
<path d="M156.594 40.209L160.419 42.0579" stroke="#03FDCB" stroke-opacity="0.5"/>
<path d="M176.027 40.209L179.529 42.7536" stroke="#03FDCB" stroke-opacity="0.5"/>
<path d="M195.462 40.209L198.481 43.199" stroke="#03FDCB" stroke-opacity="0.5"/>
<path d="M214.896 40.209L217.4 43.3598" stroke="#03FDCB" stroke-opacity="0.5"/>
<path d="M234.329 40.209L236.385 43.2792" stroke="#03FDCB" stroke-opacity="0.5"/>
<path d="M253.763 40.209L255.473 43.032" stroke="#03FDCB" stroke-opacity="0.5"/>
<path d="M273.196 40.209L274.656 42.6888" stroke="#03FDCB" stroke-opacity="0.5"/>
<path d="M292.63 40.209L293.905 42.3013" stroke="#03FDCB" stroke-opacity="0.5"/>
<path d="M1.12402 59.6465L1.78767 58.3091" stroke="#03FDCB" stroke-opacity="0.5"/>
<path d="M20.5586 59.6465L21.7161 58.1158" stroke="#03FDCB" stroke-opacity="0.5"/>
<path d="M39.9912 59.6465L41.7631 58.0574" stroke="#03FDCB" stroke-opacity="0.5"/>
<path d="M59.4258 59.6465L61.9053 58.1866" stroke="#03FDCB" stroke-opacity="0.5"/>
<path d="M78.8594 59.6465L82.0871 58.5576" stroke="#03FDCB" stroke-opacity="0.5"/>
<path d="M98.293 59.6465L102.225 59.2132" stroke="#03FDCB" stroke-opacity="0.5"/>
<path d="M117.727 59.6465L122.194 60.1601" stroke="#03FDCB" stroke-opacity="0.5"/>
<path d="M137.16 59.6465L141.845 61.327" stroke="#03FDCB" stroke-opacity="0.5"/>
<path d="M156.594 59.6465L161.066 62.5289" stroke="#03FDCB" stroke-opacity="0.5"/>
<path d="M176.027 59.6465L179.879 63.4984" stroke="#03FDCB" stroke-opacity="0.5"/>
<path d="M195.462 59.6465L198.482 64.0275" stroke="#03FDCB" stroke-opacity="0.5"/>
<path d="M214.896 59.6465L217.129 64.0946" stroke="#03FDCB" stroke-opacity="0.5"/>
<path d="M234.329 59.6465L235.978 63.8299" stroke="#03FDCB" stroke-opacity="0.5"/>
<path d="M253.763 59.6465L255.048 63.3874" stroke="#03FDCB" stroke-opacity="0.5"/>
<path d="M273.196 59.6465L274.285 62.8746" stroke="#03FDCB" stroke-opacity="0.5"/>
<path d="M292.63 59.6465L293.619 62.3491" stroke="#03FDCB" stroke-opacity="0.5"/>
<path d="M1.12402 79.082L1.85483 77.5374" stroke="#03FDCB" stroke-opacity="0.5"/>
<path d="M20.5586 79.082L21.8446 77.3161" stroke="#03FDCB" stroke-opacity="0.5"/>
<path d="M39.9912 79.082L41.9802 77.239" stroke="#03FDCB" stroke-opacity="0.5"/>
<path d="M59.4258 79.082L62.2484 77.3718" stroke="#03FDCB" stroke-opacity="0.5"/>
<path d="M78.8594 79.082L82.5999 77.7962" stroke="#03FDCB" stroke-opacity="0.5"/>
<path d="M98.293 79.082L102.945 78.6002" stroke="#03FDCB" stroke-opacity="0.5"/>
<path d="M117.727 79.082L123.119 79.8524" stroke="#03FDCB" stroke-opacity="0.5"/>
<path d="M137.16 79.082L142.858 81.5228" stroke="#03FDCB" stroke-opacity="0.5"/>
<path d="M156.594 79.082L161.882 83.3427" stroke="#03FDCB" stroke-opacity="0.5"/>
<path d="M176.027 79.082L180.155 84.7642" stroke="#03FDCB" stroke-opacity="0.5"/>
<path d="M195.462 79.082L198.123 85.3298" stroke="#03FDCB" stroke-opacity="0.5"/>
<path d="M214.896 79.082L216.362 85.1056" stroke="#03FDCB" stroke-opacity="0.5"/>
<path d="M234.329 79.082L235.099 84.4747" stroke="#03FDCB" stroke-opacity="0.5"/>
<path d="M253.763 79.082L254.244 83.7349" stroke="#03FDCB" stroke-opacity="0.5"/>
<path d="M273.196 79.082L273.63 83.0141" stroke="#03FDCB" stroke-opacity="0.5"/>
<path d="M292.63 79.082L293.123 82.346" stroke="#03FDCB" stroke-opacity="0.5"/>
<path d="M1.12402 98.5176L1.86498 96.7763" stroke="#03FDCB" stroke-opacity="0.5"/>
<path d="M20.5586 98.5176L21.8972 96.5071" stroke="#03FDCB" stroke-opacity="0.5"/>
<path d="M39.9912 98.5176L42.1064 96.3767" stroke="#03FDCB" stroke-opacity="0.5"/>
<path d="M59.4258 98.5176L62.4956 96.4616" stroke="#03FDCB" stroke-opacity="0.5"/>
<path d="M78.8594 98.5176L83.0423 96.8684" stroke="#03FDCB" stroke-opacity="0.5"/>
<path d="M98.293 98.5176L103.685 97.7472" stroke="#03FDCB" stroke-opacity="0.5"/>
<path d="M117.727 98.5176L124.258 99.2983" stroke="#03FDCB" stroke-opacity="0.5"/>
<path d="M137.16 98.5176L144.363 101.704" stroke="#03FDCB" stroke-opacity="0.5"/>
<path d="M156.594 98.5176L163.261 104.759" stroke="#03FDCB" stroke-opacity="0.5"/>
<path d="M176.027 98.5176L180.439 107.176" stroke="#03FDCB" stroke-opacity="0.5"/>
<path d="M195.462 98.5176L197.052 107.511" stroke="#03FDCB" stroke-opacity="0.5"/>
<path d="M214.896 98.5176L214.725 106.393" stroke="#03FDCB" stroke-opacity="0.5"/>
<path d="M234.329 98.5176L233.548 105.049" stroke="#03FDCB" stroke-opacity="0.5"/>
<path d="M253.763 98.5176L252.992 103.91" stroke="#03FDCB" stroke-opacity="0.5"/>
<path d="M273.196 98.5176L272.683 102.985" stroke="#03FDCB" stroke-opacity="0.5"/>
<path d="M292.63 98.5176L292.433 102.208" stroke="#03FDCB" stroke-opacity="0.5"/>
<path d="M1.12402 117.953L1.80459 116.037" stroke="#03FDCB" stroke-opacity="0.5"/>
<path d="M20.5586 117.953L21.8496 115.7" stroke="#03FDCB" stroke-opacity="0.5"/>
<path d="M39.9912 117.953L42.098 115.48" stroke="#03FDCB" stroke-opacity="0.5"/>
<path d="M59.4258 117.953L62.5768 115.448" stroke="#03FDCB" stroke-opacity="0.5"/>
<path d="M78.8594 117.953L83.3069 115.719" stroke="#03FDCB" stroke-opacity="0.5"/>
<path d="M98.293 117.953L104.316 116.487" stroke="#03FDCB" stroke-opacity="0.5"/>
<path d="M117.727 117.953L125.601 118.124" stroke="#03FDCB" stroke-opacity="0.5"/>
<path d="M137.16 117.953L145.299 120.843" stroke="#03FDCB" stroke-opacity="0.5"/>
<path d="M156.594 117.953L160.522 121.656" stroke="#03FDCB" stroke-opacity="0.5"/>
<path d="M176.027 117.953L177.362 122.061" stroke="#03FDCB" stroke-opacity="0.5"/>
<path d="M195.462 117.953L194.856 123.318" stroke="#03FDCB" stroke-opacity="0.5"/>
<path d="M214.896 117.953L212.006 126.093" stroke="#03FDCB" stroke-opacity="0.5"/>
<path d="M234.329 117.953L231.143 125.157" stroke="#03FDCB" stroke-opacity="0.5"/>
<path d="M253.763 117.953L251.322 123.652" stroke="#03FDCB" stroke-opacity="0.5"/>
<path d="M273.196 117.953L271.516 122.639" stroke="#03FDCB" stroke-opacity="0.5"/>
<path d="M292.63 117.953L291.612 121.848" stroke="#03FDCB" stroke-opacity="0.5"/>
<path d="M1.12402 137.389L1.66781 135.336" stroke="#03FDCB" stroke-opacity="0.5"/>
<path d="M20.5586 137.389L21.6862 134.921" stroke="#03FDCB" stroke-opacity="0.5"/>
<path d="M39.9912 137.389L41.92 134.581" stroke="#03FDCB" stroke-opacity="0.5"/>
<path d="M59.4258 137.389L62.4155 134.369" stroke="#03FDCB" stroke-opacity="0.5"/>
<path d="M78.8594 137.389L83.24 134.368" stroke="#03FDCB" stroke-opacity="0.5"/>
<path d="M98.293 137.389L104.54 134.727" stroke="#03FDCB" stroke-opacity="0.5"/>
<path d="M117.727 137.389L126.719 135.799" stroke="#03FDCB" stroke-opacity="0.5"/>
<path d="M137.16 137.389L142.524 137.994" stroke="#03FDCB" stroke-opacity="0.5"/>
<path d="M156.594 137.389L158.419 138.541" stroke="#03FDCB" stroke-opacity="0.5"/>
<path d="M176.027 137.389L176.255 138.828" stroke="#03FDCB" stroke-opacity="0.5"/>
<path d="M195.462 137.389L194.309 139.214" stroke="#03FDCB" stroke-opacity="0.5"/>
<path d="M214.896 137.389L211.193 141.317" stroke="#03FDCB" stroke-opacity="0.5"/>
<path d="M234.329 137.389L228.089 144.057" stroke="#03FDCB" stroke-opacity="0.5"/>
<path d="M253.763 137.389L249.503 142.677" stroke="#03FDCB" stroke-opacity="0.5"/>
<path d="M273.196 137.389L270.314 141.861" stroke="#03FDCB" stroke-opacity="0.5"/>
<path d="M292.63 137.389L290.781 141.215" stroke="#03FDCB" stroke-opacity="0.5"/>
<path d="M1.12402 156.824L1.46092 154.697" stroke="#03FDCB" stroke-opacity="0.5"/>
<path d="M20.5586 156.824L21.4092 154.206" stroke="#03FDCB" stroke-opacity="0.5"/>
<path d="M39.9912 156.824L41.5625 153.74" stroke="#03FDCB" stroke-opacity="0.5"/>
<path d="M59.4258 156.824L61.9698 153.322" stroke="#03FDCB" stroke-opacity="0.5"/>
<path d="M78.8594 156.824L82.7109 152.972" stroke="#03FDCB" stroke-opacity="0.5"/>
<path d="M98.293 156.824L103.975 152.696" stroke="#03FDCB" stroke-opacity="0.5"/>
<path d="M117.727 156.824L126.384 152.412" stroke="#03FDCB" stroke-opacity="0.5"/>
<path d="M137.16 156.824L141.267 155.49" stroke="#03FDCB" stroke-opacity="0.5"/>
<path d="M156.594 156.824L158.033 156.596" stroke="#03FDCB" stroke-opacity="0.5"/>
<path d="M176.027 156.824H176.093" stroke="#03FDCB" stroke-opacity="0.5"/>
<path d="M195.462 156.824L194.023 157.052" stroke="#03FDCB" stroke-opacity="0.5"/>
<path d="M214.896 156.824L210.788 158.159" stroke="#03FDCB" stroke-opacity="0.5"/>
<path d="M234.329 156.824L225.671 161.236" stroke="#03FDCB" stroke-opacity="0.5"/>
<path d="M253.763 156.824L248.081 160.953" stroke="#03FDCB" stroke-opacity="0.5"/>
<path d="M273.196 156.824L269.345 160.676" stroke="#03FDCB" stroke-opacity="0.5"/>
<path d="M292.63 156.824L290.086 160.326" stroke="#03FDCB" stroke-opacity="0.5"/>
<path d="M1.12402 176.262L1.20409 174.14" stroke="#03FDCB" stroke-opacity="0.5"/>
<path d="M20.5586 176.262L21.0443 173.593" stroke="#03FDCB" stroke-opacity="0.5"/>
<path d="M39.9912 176.262L41.0569 173.026" stroke="#03FDCB" stroke-opacity="0.5"/>
<path d="M59.4258 176.262L61.2745 172.436" stroke="#03FDCB" stroke-opacity="0.5"/>
<path d="M78.8594 176.262L81.7412 171.789" stroke="#03FDCB" stroke-opacity="0.5"/>
<path d="M98.293 176.262L102.553 170.973" stroke="#03FDCB" stroke-opacity="0.5"/>
<path d="M117.727 176.262L123.967 169.593" stroke="#03FDCB" stroke-opacity="0.5"/>
<path d="M137.16 176.262L140.863 172.333" stroke="#03FDCB" stroke-opacity="0.5"/>
<path d="M156.594 176.262L157.747 174.436" stroke="#03FDCB" stroke-opacity="0.5"/>
<path d="M176.027 176.262L175.799 174.822" stroke="#03FDCB" stroke-opacity="0.5"/>
<path d="M195.462 176.262L193.637 175.109" stroke="#03FDCB" stroke-opacity="0.5"/>
<path d="M214.896 176.262L209.531 175.656" stroke="#22B78F" stroke-opacity="0.5"/>
<path d="M234.329 176.262L225.336 177.852" stroke="#03FDCB" stroke-opacity="0.5"/>
<path d="M253.763 176.262L247.516 178.923" stroke="#03FDCB" stroke-opacity="0.5"/>
<path d="M273.196 176.262L268.816 179.282" stroke="#03FDCB" stroke-opacity="0.5"/>
<path d="M292.63 176.262L289.64 179.281" stroke="#03FDCB" stroke-opacity="0.5"/>
<path d="M1.12402 195.697L0.928948 193.673" stroke="#03FDCB" stroke-opacity="0.5"/>
<path d="M20.5586 195.697L20.6378 193.102" stroke="#03FDCB" stroke-opacity="0.5"/>
<path d="M39.9912 195.697L40.4734 192.483" stroke="#03FDCB" stroke-opacity="0.5"/>
<path d="M59.4258 195.697L60.4434 191.802" stroke="#03FDCB" stroke-opacity="0.5"/>
<path d="M78.8594 195.697L80.5398 191.012" stroke="#03FDCB" stroke-opacity="0.5"/>
<path d="M98.293 195.697L100.733 189.999" stroke="#03FDCB" stroke-opacity="0.5"/>
<path d="M117.727 195.697L120.912 188.493" stroke="#03FDCB" stroke-opacity="0.5"/>
<path d="M137.16 195.697L140.049 187.557" stroke="#03FDCB" stroke-opacity="0.5"/>
<path d="M156.594 195.697L157.199 190.333" stroke="#03FDCB" stroke-opacity="0.5"/>
<path d="M176.027 195.697L174.693 191.59" stroke="#03FDCB" stroke-opacity="0.5"/>
<path d="M195.462 195.697L191.534 191.994" stroke="#03FDCB" stroke-opacity="0.5"/>
<path d="M214.896 195.697L206.756 192.808" stroke="#03FDCB" stroke-opacity="0.5"/>
<path d="M234.329 195.697L226.454 195.527" stroke="#03FDCB" stroke-opacity="0.5"/>
<path d="M253.763 195.697L247.74 197.164" stroke="#03FDCB" stroke-opacity="0.5"/>
<path d="M273.196 195.697L268.749 197.931" stroke="#03FDCB" stroke-opacity="0.5"/>
<path d="M292.63 195.697L289.479 198.203" stroke="#03FDCB" stroke-opacity="0.5"/>
</g>
<defs>
<clipPath id="clip0_18_4123">
<rect width="294" height="294" rx="147" fill="white"/>
</clipPath>
</defs>
</svg>
