<svg width="48" height="48" viewBox="0 0 48 48" fill="none" xmlns="http://www.w3.org/2000/svg">
<path d="M37.8558 11.1561C37.3645 10.744 36.5929 10.685 35.7951 11.0019H35.7938C34.9547 11.335 12.0421 21.0576 11.1093 21.4548C10.9397 21.5131 9.458 22.0601 9.61062 23.2783C9.74686 24.3767 10.9377 24.8316 11.0831 24.884L16.9082 26.8572C17.2947 28.1299 18.7193 32.8253 19.0344 33.8284C19.2309 34.4537 19.5512 35.2754 20.1126 35.4445C20.6051 35.6325 21.0951 35.4607 21.4121 35.2145L24.9735 31.9466L30.7226 36.3822L30.8595 36.4632C31.2499 36.6343 31.6239 36.7198 31.9809 36.7198C32.2566 36.7198 32.5213 36.6686 32.7741 36.5662C33.6355 36.2163 33.98 35.4044 34.016 35.3123L38.3103 13.2304C38.5724 12.051 38.2082 11.451 37.8558 11.1561ZM22.0455 27.6465L20.0805 32.8305L18.1154 26.3505L33.1809 15.3344L22.0455 27.6465Z" fill="white"/>
</svg>
