<svg width="48" height="48" viewBox="0 0 48 48" fill="none" xmlns="http://www.w3.org/2000/svg">
<path d="M10.802 24.0759C10.8034 30.0155 15.0961 35.0728 20.9264 36.0037V27.5652H17.882V24.0759H20.93V21.4196C20.7937 20.161 21.221 18.9066 22.096 17.9966C22.9709 17.0866 24.2028 16.6154 25.4576 16.7108C26.3582 16.7254 27.2566 16.8062 28.1456 16.9523V19.9213H26.6288C26.1066 19.8524 25.5816 20.026 25.2017 20.3929C24.8218 20.7599 24.6281 21.2806 24.6752 21.8084V24.0759H28.0004L27.4688 27.5664H24.6752V36.0037C30.9806 35.001 35.4021 29.207 34.7366 22.8191C34.0711 16.4311 28.5515 11.6856 22.1766 12.0203C15.8016 12.3551 10.803 17.6529 10.802 24.0759Z" fill="white"/>
</svg>
