<svg width="48" height="48" viewBox="0 0 48 48" fill="none" xmlns="http://www.w3.org/2000/svg">
<path d="M33.1725 17.0162C34.201 16.3728 34.9706 15.3597 35.3375 14.166C34.371 14.766 33.3136 15.1887 32.211 15.4158C30.6823 13.7236 28.2602 13.3118 26.2981 14.4105C24.336 15.5092 23.3197 17.8464 23.8171 20.1162C19.8583 19.9082 16.17 17.9514 13.67 14.7327C12.3653 17.0876 13.0321 20.0979 15.1937 21.6121C14.412 21.5858 13.6477 21.3644 12.9644 20.9662C12.9644 20.9878 12.9644 21.0094 12.9644 21.031C12.9649 23.484 14.617 25.597 16.9147 26.0832C16.1897 26.2896 15.4291 26.32 14.6912 26.172C15.3373 28.2698 17.185 29.7069 19.2908 29.7498C17.5467 31.1823 15.3927 31.9591 13.1755 31.9553C12.7825 31.9559 12.3898 31.9322 11.9995 31.8845C14.251 33.3985 16.8715 34.202 19.5478 34.1992C23.2712 34.226 26.8495 32.6899 29.4823 29.9347C32.1151 27.1795 33.5827 23.4349 33.5568 19.5387C33.5568 19.3154 33.5519 19.0933 33.5419 18.8723C34.5062 18.1431 35.3384 17.2397 35.9995 16.2046C35.1012 16.6213 34.1483 16.8949 33.1725 17.0162Z" fill="white"/>
</svg>
