<svg width="48" height="48" viewBox="0 0 48 48" fill="none" xmlns="http://www.w3.org/2000/svg">
<path d="M37.5957 18.0671C37.3295 16.6009 36.0609 15.5332 34.5888 15.1999C32.3859 14.7337 28.3089 14.4004 23.8978 14.4004C19.4893 14.4004 15.3471 14.7337 13.1415 15.1999C11.672 15.5332 10.4009 16.5332 10.1347 18.0671C9.86584 19.7337 9.59961 22.0671 9.59961 25.0671C9.59961 28.0671 9.86584 30.4004 10.1999 32.0671C10.4688 33.5332 11.7373 34.6009 13.2068 34.9342C15.5455 35.4004 19.5546 35.7337 23.9657 35.7337C28.3768 35.7337 32.3859 35.4004 34.7246 34.9342C36.1941 34.6009 37.4626 33.6009 37.7314 32.0671C37.9977 30.4004 38.3317 27.9993 38.3996 25.0671C38.2639 22.0671 37.9298 19.7337 37.5957 18.0671ZM20.2906 29.7337V20.4004L28.442 25.0671L20.2906 29.7337Z" fill="white"/>
</svg>
