<svg width="48" height="48" viewBox="0 0 48 48" fill="none" xmlns="http://www.w3.org/2000/svg">
<path d="M34.4083 15.5609C31.9162 13.5554 27.9738 13.2155 27.805 13.2033C27.5434 13.1813 27.2939 13.328 27.1863 13.5701C27.1765 13.5848 27.0909 13.7829 26.9955 14.091C28.6439 14.3699 30.6689 14.9299 32.5007 16.0671C32.7942 16.2481 32.8847 16.6345 32.7037 16.928C32.5838 17.1212 32.3809 17.2264 32.1705 17.2264C32.058 17.2264 31.9431 17.1946 31.8404 17.131C28.6904 15.1769 24.7578 15.0791 23.9996 15.0791C23.2415 15.0791 19.3064 15.1769 16.1588 17.131C15.8654 17.3144 15.479 17.2239 15.298 16.9304C15.1146 16.6345 15.205 16.2506 15.4985 16.0671C17.3303 14.9324 19.3553 14.3699 21.0037 14.0935C20.9083 13.7829 20.8227 13.5872 20.8154 13.5701C20.7053 13.328 20.4583 13.1764 20.1942 13.2033C20.0254 13.2155 16.083 13.5554 13.5567 15.5878C12.2385 16.8082 9.59961 23.9397 9.59961 30.1052C9.59961 30.2152 9.62896 30.3204 9.68276 30.4158C11.5023 33.6147 16.4694 34.4511 17.6018 34.4878C17.6067 34.4878 17.614 34.4878 17.6213 34.4878C17.8219 34.4878 18.0102 34.3924 18.1276 34.231L19.2722 32.656C16.1833 31.8587 14.6059 30.5038 14.5154 30.4231C14.2561 30.1957 14.2317 29.7995 14.4616 29.5402C14.689 29.281 15.0852 29.2565 15.3444 29.484C15.3811 29.5182 18.2866 31.9834 23.9996 31.9834C29.7224 31.9834 32.6279 29.5084 32.6572 29.484C32.9165 29.259 33.3102 29.281 33.5401 29.5427C33.7675 29.8019 33.7431 30.1957 33.4838 30.4231C33.3934 30.5038 31.8159 31.8587 28.7271 32.656L29.8716 34.231C29.989 34.3924 30.1773 34.4878 30.3779 34.4878C30.3852 34.4878 30.3925 34.4878 30.3974 34.4878C31.5298 34.4511 36.4969 33.6147 38.3165 30.4158C38.3703 30.3204 38.3996 30.2152 38.3996 30.1052C38.3996 23.9397 35.7607 16.8082 34.4083 15.5609ZM19.93 27.6008C18.7194 27.6008 17.7387 26.4807 17.7387 25.0965C17.7387 23.7122 18.7194 22.5921 19.93 22.5921C21.1406 22.5921 22.1213 23.7122 22.1213 25.0965C22.1213 26.4807 21.1406 27.6008 19.93 27.6008ZM28.0692 27.6008C26.8586 27.6008 25.8779 26.4807 25.8779 25.0965C25.8779 23.7122 26.8586 22.5921 28.0692 22.5921C29.2798 22.5921 30.2605 23.7122 30.2605 25.0965C30.2605 26.4807 29.2798 27.6008 28.0692 27.6008Z" fill="white"/>
</svg>
