<svg width="70" height="70" viewBox="0 0 70 70" fill="none" xmlns="http://www.w3.org/2000/svg">
<path d="M36.7371 2.1875V43.5862H34.1823V2.19119C25.7891 2.60195 18.4027 6.89501 13.7828 13.3091L18.57 21.6005C19.0979 21.4588 19.6526 21.3821 20.2254 21.3821C23.7447 21.3821 26.5979 24.2351 26.5979 27.7546C26.5979 30.8378 24.4081 33.4095 21.4993 33.9996V57.7954C23.3736 60.7246 25.272 63.5336 27.0643 66.0999V50.0905H43.8552V66.0993C45.6472 63.5332 47.5458 60.7241 49.4203 57.7948V33.9998C46.5112 33.4097 44.3214 30.8381 44.3214 27.7546C44.3214 24.2352 47.1746 21.3821 50.694 21.3821C51.2667 21.3821 51.8217 21.4589 52.3497 21.6008L57.1516 13.2835C52.5397 6.85905 45.1559 2.57037 36.7374 2.18764L36.7371 2.1875ZM58.7015 15.7072L54.6363 22.7495C56.1158 23.9165 57.0669 25.7239 57.0669 27.7545C57.0669 30.8355 54.8805 33.4057 51.9746 33.9985V53.695C53.3187 51.4756 54.6141 49.2285 55.8039 47.0071C59.5355 40.0392 62.1688 33.2875 62.1688 28.9147C62.1688 24.1132 60.9085 19.6055 58.7016 15.7073L58.7015 15.7072ZM12.2302 15.7287C10.0163 19.6224 8.75 24.1226 8.75 28.9146C8.75 33.2876 11.3836 40.0392 15.1153 47.007C16.3051 49.2286 17.6006 51.476 18.9448 53.6957V33.9985C16.0388 33.4058 13.8525 30.8355 13.8525 27.7545C13.8525 25.7238 14.8035 23.9162 16.2833 22.7493L12.23 15.7288L12.2302 15.7287ZM29.619 52.6448V66.4893H41.3007V52.6447H29.619V52.6448Z" fill="#14C2A3"/>
</svg>
