<svg width="48" height="48" viewBox="0 0 48 48" fill="none" xmlns="http://www.w3.org/2000/svg">
<path d="M34.971 10.7998H13.0282C11.1377 10.7998 9.59961 12.3379 9.59961 14.2284V36.1712C9.59961 38.0617 11.1377 39.5998 13.0282 39.5998H34.971C36.8616 39.5998 38.3996 38.0617 38.3996 36.1712V14.2284C38.3996 12.3379 36.8616 10.7998 34.971 10.7998ZM32.2323 23.3641C32.0766 23.3785 31.9189 23.3881 31.7592 23.3881C29.9605 23.3881 28.38 22.4631 27.4604 21.0649C27.4604 24.7328 27.4604 28.9061 27.4604 28.976C27.4604 32.2051 24.8424 34.8231 21.6133 34.8231C18.3843 34.8231 15.7662 32.2051 15.7662 28.976C15.7662 25.747 18.3843 23.1289 21.6133 23.1289C21.7354 23.1289 21.8547 23.1399 21.9747 23.1475V26.0288C21.8547 26.0144 21.7368 25.9925 21.6133 25.9925C19.9649 25.9925 18.6291 27.3283 18.6291 28.9767C18.6291 30.6252 19.9649 31.9609 21.6133 31.9609C23.2618 31.9609 24.7176 30.6622 24.7176 29.0137C24.7176 28.9486 24.7464 15.5779 24.7464 15.5779H27.5002C27.7594 18.0403 29.7473 19.9836 32.2323 20.1619V23.3641Z" fill="white"/>
</svg>
