<svg width="26" height="26" viewBox="0 0 26 26" fill="none" xmlns="http://www.w3.org/2000/svg">
<path fill-rule="evenodd" clip-rule="evenodd" d="M15.9897 1.8434L13.0004 0.166504L10.0109 1.8434L6.58366 1.88585L4.83324 4.83276L1.88634 6.58318L1.84389 10.0105L0.166992 12.9998L1.84389 15.9892L1.88634 19.4165L4.83324 21.1669L6.58366 24.1138L10.0109 24.1563L13.0004 25.8332L15.9897 24.1563L19.417 24.1138L21.1674 21.1669L24.1144 19.4165L24.1568 15.9892L25.8336 12.9998L24.1568 10.0105L24.1144 6.58318L21.1674 4.83276L19.417 1.88585L15.9897 1.8434ZM6.87533 13.4373L11.2504 17.8123L19.1254 10.0248L17.7254 8.62481L11.2504 15.0998L8.27537 12.1248L6.87533 13.4373Z" fill="#14C2A3"/>
</svg>
